<?xml version="1.0" encoding="utf-8"?>
<svg zoomAndPan="magnify" preserveAspectRatio="xMidYMid meet" version="1.0" height="55px" width="55px" viewBox="133 131 75.5 66" xmlns="http://www.w3.org/2000/svg" xmlns:bx="https://boxy-svg.com">
  <defs>
    <g/>
    <clipPath id="3c29521066">
      <path d="M 34 139 L 97 139 L 97 203 L 34 203 Z M 34 139 " clip-rule="nonzero"/>
    </clipPath>
    <clipPath id="88639849ee">
      <path d="M 19.074219 144.871094 L 91.125 134.824219 L 99.828125 197.222656 L 27.773438 207.269531 Z M 19.074219 144.871094 " clip-rule="nonzero"/>
    </clipPath>
    <clipPath id="971ab66817">
      <path d="M 19.074219 144.871094 L 91.125 134.824219 L 99.828125 197.222656 L 27.773438 207.269531 Z M 19.074219 144.871094 " clip-rule="nonzero"/>
    </clipPath>
    <clipPath id="ba50a8f31f">
      <path d="M 24 141 L 96 141 L 96 202 L 24 202 Z M 24 141 " clip-rule="nonzero"/>
    </clipPath>
    <clipPath id="d5f4e54629">
      <path d="M 19.074219 144.871094 L 91.125 134.824219 L 99.828125 197.222656 L 27.773438 207.269531 Z M 19.074219 144.871094 " clip-rule="nonzero"/>
    </clipPath>
    <clipPath id="4e4dbc009e">
      <path d="M 19.074219 144.871094 L 91.125 134.824219 L 99.828125 197.222656 L 27.773438 207.269531 Z M 19.074219 144.871094 " clip-rule="nonzero"/>
    </clipPath>
    <bx:guide x="114.859" y="218.781" angle="90"/>
    <bx:guide x="123.41668498576965" y="170.41020987038593" angle="90"/>
    <bx:guide x="229.83345815162826" y="171.15438310930801" angle="0"/>
  </defs>
  <g clip-path="url(#3c29521066)" transform="matrix(1, 0, 0, 1, 109.808899, 13.359015)">
    <g clip-path="url(#88639849ee)">
      <g clip-path="url(#971ab66817)">
        <path fill="#ffbd59" d="M 35.648438 170.339844 C 33.367188 171.429688 35.179688 164.726562 35.382812 163.746094 C 35.863281 161.976562 36.53125 160.277344 37.265625 158.625 C 38.703125 155.226562 40.53125 152.066406 42.875 149.339844 C 44.902344 147.175781 47.066406 145.074219 49.539062 143.535156 C 51.09375 142.75 52.480469 141.609375 54.082031 140.933594 C 56.984375 139.75 60.085938 139.164062 63.210938 139.167969 C 65.644531 139.191406 68.078125 139.488281 70.511719 139.476562 C 71.8125 139.5 73.128906 139.578125 74.394531 139.976562 C 77.820312 140.882812 80.847656 143.183594 83.039062 146.214844 C 84.226562 147.589844 85.238281 149.109375 86 150.804688 C 86.449219 151.617188 86.933594 152.40625 87.257812 153.292969 C 88.582031 155.675781 89.425781 157.691406 88.941406 160.507812 C 88.34375 164.40625 84.429688 166.03125 81.515625 167.492188 C 78.542969 168.71875 75.488281 169.726562 72.332031 170.300781 C 69.863281 170.730469 67.351562 170.875 64.867188 171.199219 C 60.84375 171.714844 57.046875 173.40625 52.996094 173.804688 C 49.992188 174.273438 46.957031 174.585938 43.921875 173.914062 C 42.121094 173.546875 40.214844 173.480469 38.570312 172.480469 C 37.550781 171.847656 36.324219 171.46875 35.648438 170.339844 Z M 96.492188 184.199219 C 96.109375 182.605469 94.871094 181.300781 93.371094 181.085938 C 91.535156 180.738281 89.789062 181.683594 88.007812 182.089844 C 82.367188 183.273438 76.632812 184.09375 71.195312 186.140625 C 66.238281 187.621094 61.371094 189.539062 56.257812 190.363281 C 53.242188 190.867188 50.160156 190.554688 47.136719 190.933594 C 45.394531 191.058594 43.757812 191.679688 42.058594 192.027344 C 41.53125 192.15625 41 192.207031 40.460938 192.117188 C 40.105469 192.050781 39.746094 192 39.476562 192.3125 C 38.75 193.09375 38.507812 195.070312 39.613281 195.628906 C 40.542969 196.699219 41.582031 197.71875 42.570312 198.746094 C 43.421875 199.554688 44.445312 200.085938 45.417969 200.683594 C 48.628906 202.320312 52.277344 202.753906 55.753906 202.773438 C 60.757812 202.535156 65.613281 201.183594 70.539062 200.355469 C 74.738281 199.621094 78.585938 197.609375 82.566406 196.109375 C 84.914062 195.191406 87.417969 194.832031 89.738281 193.816406 C 91.648438 192.839844 93.648438 191.695312 94.960938 189.84375 C 96.058594 188.28125 97.113281 186.257812 96.492188 184.199219 Z M 96.492188 184.199219 " fill-opacity="1" fill-rule="nonzero"/>
      </g>
    </g>
  </g>
  <g clip-path="url(#ba50a8f31f)" transform="matrix(1, 0, 0, 1, 109.808899, 13.359015)">
    <g clip-path="url(#d5f4e54629)">
      <g clip-path="url(#4e4dbc009e)">
        <path fill="#780000" d="M 95.476562 167.277344 C 94.882812 166.179688 93.699219 165.722656 92.769531 164.972656 C 94.019531 164.261719 94.539062 162.042969 92.964844 161.402344 C 92.023438 161.082031 91.003906 161.097656 90.023438 161.027344 C 89.640625 161.023438 89.261719 160.976562 88.878906 160.9375 C 89.476562 157.164062 85.871094 153.070312 81.648438 148.257812 C 78.050781 144.40625 74.976562 142.160156 69.679688 141.226562 C 67.230469 140.78125 64.742188 141.136719 62.277344 141.082031 C 53.507812 140.597656 47.726562 142.605469 40.878906 148.007812 C 39.464844 148.898438 38.285156 150.066406 37.058594 151.191406 C 35.574219 152.382812 34.476562 153.925781 33.566406 155.582031 C 32.75 157.011719 31.800781 158.375 31.113281 159.875 C 29.871094 162.816406 29.195312 166.136719 29.699219 169.320312 C 29.894531 170.675781 30.765625 171.800781 32.007812 172.347656 C 31.972656 172.46875 31.941406 172.601562 31.921875 172.742188 C 31.175781 172.496094 30.175781 172.554688 29.613281 172.71875 C 28.113281 173.1875 26.398438 173.886719 25.691406 175.394531 C 24.890625 177.3125 25.871094 178.253906 27.71875 178.621094 C 26.71875 179.476562 25.804688 180.476562 25.277344 181.699219 C 24.429688 183.289062 24.929688 185.34375 27.03125 185.136719 C 28.789062 184.917969 30.382812 184.125 32.023438 183.488281 C 31.675781 184.617188 31.425781 185.785156 31.097656 186.921875 C 30.8125 188.125 29.835938 190.105469 31.273438 190.886719 C 31.703125 191.007812 32.117188 190.828125 32.523438 190.703125 C 33.128906 190.539062 33.75 190.4375 34.367188 190.316406 C 32.144531 194.324219 35.183594 198.480469 39.066406 200.101562 C 41.398438 201.070312 43.867188 201.488281 46.382812 201.515625 C 50.316406 201.636719 54.199219 201.453125 58.113281 200.988281 C 62.703125 200.496094 67.183594 199.371094 71.609375 198.070312 C 74.925781 197.222656 78.328125 196.773438 81.601562 195.753906 C 85.019531 194.734375 89.160156 192.230469 91.410156 189.453125 C 94.035156 186.390625 94.332031 181.800781 91.117188 179.050781 C 90.695312 178.78125 89.941406 178.191406 89.210938 177.847656 C 89.199219 177.71875 89.179688 177.582031 89.15625 177.445312 C 91.429688 176.714844 92.351562 174.449219 91.496094 172.214844 C 92.601562 172.019531 93.714844 171.609375 94.574219 170.867188 C 95.417969 169.976562 96.042969 168.453125 95.476562 167.277344 Z M 58.578125 173.894531 C 58.621094 173.890625 58.664062 173.882812 58.703125 173.878906 C 58.671875 173.917969 58.644531 173.957031 58.617188 173.992188 C 58.605469 173.960938 58.59375 173.929688 58.578125 173.894531 Z M 48.941406 175.191406 C 48.90625 174.875 48.855469 174.625 48.789062 174.421875 C 49.039062 174.421875 49.289062 174.417969 49.539062 174.414062 C 49.3125 174.730469 49.109375 175.019531 48.941406 175.191406 Z M 43.84375 175.65625 C 43.558594 175.375 43.519531 174.941406 43.390625 174.558594 C 43.808594 174.546875 44.226562 174.53125 44.644531 174.515625 C 44.746094 174.511719 44.847656 174.511719 44.949219 174.507812 C 44.59375 174.855469 44.222656 175.304688 43.84375 175.65625 Z M 40.832031 175.105469 C 40.828125 174.914062 40.816406 174.734375 40.800781 174.570312 C 40.941406 174.574219 41.082031 174.578125 41.222656 174.578125 C 41.070312 174.765625 40.9375 174.949219 40.832031 175.105469 Z M 34.082031 173.597656 C 34.054688 173.503906 34.03125 173.40625 34.007812 173.308594 C 34.058594 173.328125 34.105469 173.347656 34.152344 173.363281 C 34.125 173.441406 34.101562 173.519531 34.082031 173.597656 Z M 45.496094 176.347656 C 45.558594 176.515625 45.628906 176.667969 45.703125 176.800781 C 45.535156 176.800781 45.367188 176.804688 45.199219 176.804688 C 45.304688 176.65625 45.40625 176.5 45.496094 176.347656 Z M 46.625 174.457031 C 46.890625 174.453125 47.152344 174.445312 47.414062 174.441406 C 47.257812 174.664062 47.109375 174.933594 46.980469 175.234375 C 46.863281 174.90625 46.746094 174.652344 46.625 174.457031 Z M 47.625 176.722656 C 47.628906 176.742188 47.632812 176.757812 47.640625 176.777344 C 47.621094 176.777344 47.601562 176.777344 47.582031 176.777344 C 47.59375 176.757812 47.609375 176.742188 47.625 176.722656 Z M 50.261719 176.273438 C 50.261719 176.4375 50.277344 176.59375 50.308594 176.742188 C 50.140625 176.746094 49.976562 176.746094 49.808594 176.746094 C 49.980469 176.582031 50.132812 176.417969 50.261719 176.273438 Z M 63.507812 172.910156 C 63.6875 172.863281 63.871094 172.820312 64.050781 172.773438 C 64.019531 172.871094 63.996094 172.964844 63.984375 173.050781 C 63.929688 173.367188 63.929688 173.816406 63.980469 174.28125 C 63.828125 174.3125 63.679688 174.34375 63.527344 174.375 C 63.6875 173.925781 63.675781 173.347656 63.507812 172.910156 Z M 72.0625 171.683594 C 71.941406 171.351562 71.816406 171.074219 71.6875 170.84375 C 72.042969 170.761719 72.402344 170.683594 72.761719 170.605469 C 72.484375 170.925781 72.304688 171.335938 72.0625 171.683594 Z M 68.707031 172.046875 C 68.640625 171.894531 68.570312 171.75 68.503906 171.617188 C 68.664062 171.578125 68.824219 171.535156 68.984375 171.496094 C 68.890625 171.667969 68.796875 171.855469 68.707031 172.046875 Z M 70.167969 173.132812 C 70.1875 173.175781 70.203125 173.21875 70.21875 173.261719 C 70.183594 173.265625 70.144531 173.273438 70.105469 173.277344 C 70.128906 173.230469 70.148438 173.183594 70.167969 173.132812 Z M 74.066406 171.792969 C 74.257812 171.386719 74.21875 170.691406 73.933594 170.355469 C 74.445312 170.242188 74.957031 170.128906 75.464844 170.007812 C 75.519531 170.121094 75.59375 170.230469 75.683594 170.324219 C 75.9375 170.835938 76.125 171.378906 76.316406 171.914062 C 75.769531 172.105469 75.21875 172.277344 74.652344 172.414062 C 74.308594 172.503906 73.964844 172.589844 73.617188 172.664062 C 73.792969 172.367188 73.945312 172.066406 74.066406 171.792969 Z M 80.191406 169.804688 C 80.015625 169.457031 79.8125 169.121094 79.660156 168.761719 C 80.195312 168.554688 80.71875 168.328125 81.234375 168.074219 C 81.3125 168.039062 81.394531 168 81.472656 167.964844 C 81.527344 168.457031 81.71875 169.007812 82.101562 169.578125 C 81.527344 169.828125 80.945312 170.074219 80.367188 170.316406 C 80.347656 170.121094 80.292969 169.945312 80.191406 169.804688 Z M 34.3125 158.1875 C 36.535156 154.222656 39.613281 150.667969 43.585938 148.394531 C 46.011719 147.105469 48.65625 146.375 51.316406 145.757812 C 53.792969 145.109375 56.242188 144.351562 58.785156 144.019531 C 60.597656 143.710938 62.429688 143.984375 64.230469 144.234375 C 67.371094 144.535156 70.433594 145.292969 73.511719 145.9375 C 76.109375 146.4375 78.476562 147.753906 80.519531 149.402344 C 82.71875 151.488281 84.335938 154.117188 85.71875 156.792969 C 87.671875 160.054688 87.382812 160.714844 84.34375 162.828125 C 81.265625 165.132812 77.820312 166.847656 74.25 168.25 C 69.042969 170.425781 63.21875 169.699219 57.726562 170.386719 C 53.105469 170.953125 48.5 172.019531 43.824219 171.417969 C 39.71875 171.214844 35.484375 170.957031 31.679688 169.300781 C 30.75 165.449219 32.234375 161.421875 34.3125 158.1875 Z M 33.90625 183.425781 C 33.964844 183.238281 34.023438 183.039062 34.0625 182.835938 C 34.078125 182.832031 34.089844 182.828125 34.101562 182.824219 C 38.011719 181.660156 37.964844 186.832031 42.382812 184.964844 C 43.371094 184.621094 44.066406 183.8125 44.925781 183.261719 C 46.925781 182.335938 48.617188 183.441406 50.550781 183.84375 C 51.578125 184.023438 52.625 183.855469 53.640625 183.644531 C 53.546875 183.675781 53.453125 183.707031 53.363281 183.738281 C 52.632812 183.984375 51.890625 184.179688 51.144531 184.347656 C 50.585938 184.09375 50.019531 184.308594 49.480469 184.679688 C 48.304688 184.898438 47.121094 185.09375 45.953125 185.363281 C 44.882812 185.59375 43.808594 185.808594 42.734375 186.015625 C 42.457031 185.96875 42.203125 186.03125 41.980469 186.160156 C 38.914062 186.738281 35.835938 187.257812 32.773438 187.835938 C 33.210938 186.382812 33.523438 184.894531 33.90625 183.425781 Z M 86.144531 178.667969 C 85.824219 178.84375 85.5 179.011719 85.175781 179.175781 C 85.175781 179.175781 85.175781 179.171875 85.175781 179.167969 C 85.339844 178.746094 85.214844 178.296875 85.03125 177.894531 C 85.363281 177.90625 85.691406 177.914062 86.015625 177.914062 C 86.019531 178.1875 86.058594 178.449219 86.144531 178.667969 Z M 59.589844 184.90625 C 59.703125 184.875 59.816406 184.84375 59.929688 184.808594 C 59.851562 184.953125 59.785156 185.085938 59.726562 185.207031 C 59.683594 185.101562 59.636719 185 59.589844 184.90625 Z M 62.273438 184.011719 C 62.285156 184.007812 62.296875 184.003906 62.304688 184 C 62.300781 184.015625 62.292969 184.027344 62.289062 184.039062 C 62.285156 184.03125 62.277344 184.023438 62.273438 184.011719 Z M 66.082031 182.902344 C 66.035156 182.804688 65.988281 182.714844 65.945312 182.628906 C 66.070312 182.582031 66.199219 182.535156 66.328125 182.492188 C 66.230469 182.636719 66.148438 182.773438 66.082031 182.902344 Z M 69.15625 181.644531 C 69.1875 181.636719 69.21875 181.628906 69.246094 181.625 C 69.230469 181.664062 69.214844 181.703125 69.203125 181.738281 C 69.1875 181.707031 69.171875 181.675781 69.15625 181.644531 Z M 56.542969 185.617188 C 56.683594 185.589844 56.820312 185.5625 56.960938 185.53125 C 56.902344 185.648438 56.847656 185.765625 56.796875 185.882812 C 56.703125 185.804688 56.621094 185.710938 56.542969 185.617188 Z M 41.464844 188.847656 C 41.535156 188.875 41.613281 188.890625 41.703125 188.890625 C 41.390625 188.929688 41.0625 188.984375 40.726562 189.042969 C 40.972656 188.980469 41.21875 188.917969 41.464844 188.847656 Z M 46.007812 188.628906 C 45.773438 188.65625 45.539062 188.675781 45.304688 188.695312 C 45.519531 188.523438 45.742188 188.460938 46.007812 188.628906 Z M 49.113281 187.832031 C 49.4375 187.609375 49.8125 186.984375 50.214844 187.089844 C 50.441406 187.378906 50.652344 187.625 50.855469 187.828125 C 50.167969 187.917969 49.484375 188.019531 48.804688 188.140625 C 48.90625 188.039062 49.011719 187.9375 49.113281 187.832031 Z M 54.546875 187 C 54.660156 187.136719 54.773438 187.28125 54.886719 187.421875 C 54.625 187.453125 54.367188 187.476562 54.105469 187.503906 C 54.246094 187.351562 54.394531 187.183594 54.546875 187 Z M 58.226562 186.238281 C 58.363281 186.421875 58.464844 186.644531 58.578125 186.855469 C 58.351562 186.90625 58.125 186.949219 57.894531 186.992188 C 58.023438 186.730469 58.132812 186.464844 58.226562 186.238281 Z M 60.964844 185.753906 C 61.03125 185.945312 61.105469 186.101562 61.183594 186.226562 C 60.980469 186.28125 60.78125 186.332031 60.578125 186.382812 C 60.71875 186.164062 60.847656 185.941406 60.964844 185.753906 Z M 63.921875 184.84375 C 63.992188 185.050781 64.074219 185.234375 64.160156 185.402344 C 63.878906 185.484375 63.601562 185.5625 63.320312 185.640625 C 63.550781 185.363281 63.757812 185.074219 63.921875 184.84375 Z M 81.800781 180.679688 C 81.550781 180.773438 81.300781 180.867188 81.046875 180.957031 C 81.167969 180.660156 81.265625 180.363281 81.324219 180.101562 C 81.488281 180.347656 81.648438 180.539062 81.800781 180.679688 Z M 84.113281 179.695312 C 84.019531 179.738281 83.921875 179.78125 83.824219 179.828125 C 83.894531 179.707031 83.960938 179.578125 84.023438 179.449219 C 84.046875 179.546875 84.078125 179.628906 84.113281 179.695312 Z M 82.996094 178.527344 C 82.863281 178.222656 82.726562 177.976562 82.585938 177.785156 C 82.898438 177.789062 83.207031 177.804688 83.519531 177.820312 C 83.3125 178.0625 83.128906 178.335938 82.996094 178.527344 Z M 79.554688 179.355469 C 79.445312 179.132812 79.332031 178.949219 79.21875 178.800781 C 79.492188 178.484375 79.808594 178.199219 80.371094 178.011719 C 80.058594 178.394531 79.78125 178.875 79.554688 179.355469 Z M 72.230469 181.792969 C 71.984375 181.371094 71.933594 180.851562 71.714844 180.417969 C 72.085938 180.492188 72.460938 180.578125 72.84375 180.65625 C 72.605469 181.015625 72.398438 181.414062 72.230469 181.792969 Z M 55.410156 183.046875 C 55.878906 182.796875 56.328125 182.503906 56.785156 182.230469 C 57.308594 182.042969 57.828125 181.988281 58.339844 182.011719 C 57.363281 182.355469 56.390625 182.707031 55.410156 183.046875 Z M 91.269531 187.355469 C 89.402344 189.621094 86.417969 190.25 83.878906 191.453125 C 80.929688 192.382812 78.089844 193.59375 75.152344 194.550781 C 71.089844 195.582031 66.882812 195.867188 62.839844 197.003906 C 58.8125 198.074219 54.855469 199.871094 50.589844 199.410156 C 46.984375 198.785156 43.1875 198.871094 39.828125 197.277344 C 38.121094 196.355469 35.921875 194.507812 35.648438 192.496094 C 35.582031 192.09375 35.71875 191.738281 35.902344 191.390625 C 36.273438 191.847656 36.84375 192.15625 37.632812 192.207031 C 39.15625 192.261719 40.644531 191.917969 42.148438 191.761719 C 43.113281 191.742188 44.066406 191.589844 45.027344 191.492188 C 45.882812 191.433594 46.726562 191.265625 47.550781 191.042969 C 49.234375 190.644531 50.972656 190.597656 52.664062 190.242188 C 55.433594 189.628906 58.183594 188.882812 60.957031 188.296875 C 63.480469 187.941406 66.011719 187.703125 68.53125 187.328125 C 71.320312 186.714844 74.109375 186.007812 76.808594 185.066406 C 78.132812 184.535156 79.5 184.117188 80.859375 183.683594 C 81.878906 183.386719 82.953125 183.265625 83.933594 182.839844 C 85.683594 182.308594 87.402344 181.683594 88.386719 180.558594 C 89.222656 180.832031 90.039062 181.171875 90.742188 181.703125 C 92.421875 183.09375 92.855469 185.730469 91.269531 187.355469 Z M 92.050781 169.40625 C 91.085938 169.367188 90.015625 169.523438 89.539062 170.476562 C 88.839844 171.597656 89.070312 172.925781 89.429688 174.117188 C 87.0625 174.992188 84.46875 174.609375 82.011719 175.011719 C 79.644531 175.382812 79.152344 176.046875 77.933594 177.96875 C 77.574219 178.394531 77.039062 178.578125 76.523438 178.746094 C 75.496094 179.210938 74.351562 179.257812 73.289062 178.878906 C 71.144531 178.054688 68.695312 177.582031 66.582031 178.761719 C 65.824219 179.164062 65.136719 179.902344 64.199219 179.691406 C 62.460938 179.140625 60.761719 178.238281 58.878906 178.445312 C 57.386719 178.46875 56.203125 179.382812 55.128906 180.3125 C 53.703125 181.121094 51.882812 181.492188 50.375 180.699219 C 48.523438 179.8125 47.230469 179.183594 45.140625 179.886719 C 44.09375 180.210938 43.425781 181.171875 42.46875 181.660156 C 41.132812 182.421875 40.101562 182.144531 38.863281 181.351562 C 36.28125 179.308594 33.109375 181.261719 30.4375 182.09375 C 29.296875 182.296875 28.015625 182.929688 26.886719 182.433594 C 27.578125 181.167969 28.9375 180.503906 29.894531 179.476562 C 30.621094 178.640625 31.0625 176.960938 29.929688 176.277344 C 29.558594 176.089844 29.171875 175.957031 28.777344 175.820312 C 29.371094 175.578125 30.027344 175.417969 30.671875 175.464844 C 31.085938 175.535156 31.503906 175.835938 31.925781 175.671875 C 32.042969 175.613281 32.148438 175.539062 32.242188 175.453125 C 32.449219 176.226562 32.769531 176.976562 33.367188 177.515625 C 34.589844 178.417969 36.082031 178.9375 37.5625 179.238281 C 40.410156 179.550781 43.300781 179.632812 46.160156 179.484375 C 48.625 179.328125 51.054688 178.871094 53.492188 178.519531 C 56.257812 178.101562 59.042969 177.933594 61.832031 177.75 C 66.234375 177.582031 70.492188 176.359375 74.675781 175.050781 C 77.3125 174.328125 80.019531 173.839844 82.589844 172.886719 C 84.429688 172.132812 86.152344 171.089844 87.699219 169.847656 C 88.816406 168.804688 89.214844 167.039062 88.726562 165.601562 C 88.601562 165.28125 88.175781 164.457031 87.734375 163.992188 C 87.933594 163.957031 88.128906 163.929688 88.300781 163.945312 C 89.601562 163.882812 90.867188 163.527344 92.171875 163.582031 C 91.554688 163.863281 91.007812 164.363281 90.960938 165.082031 C 90.804688 166.394531 93.75 167.269531 94.234375 168.671875 C 93.757812 169.265625 92.761719 169.261719 92.050781 169.40625 Z M 46.265625 152.972656 C 46.984375 152.222656 47.496094 151.121094 48.46875 150.6875 C 49.652344 150.617188 49.695312 152.4375 49.183594 153.164062 C 48.804688 153.539062 48.398438 153.890625 48.113281 154.367188 C 47.695312 154.773438 47.433594 155.558594 46.785156 155.597656 C 45.734375 155.34375 45.769531 153.714844 46.265625 152.972656 Z M 55.296875 147.820312 C 59.773438 148.570312 57.96875 152.695312 56.722656 151.632812 C 56.246094 151.128906 55.5625 150.949219 54.921875 150.722656 C 53.226562 150.960938 53.558594 147.257812 55.296875 147.820312 Z M 61.117188 153.59375 C 60.363281 152.78125 60.738281 151.546875 61.195312 150.675781 C 61.535156 150.15625 61.683594 149.117188 62.515625 149.285156 C 63.714844 149.984375 63.054688 151.667969 62.515625 152.613281 C 62.371094 153.21875 61.816406 154.199219 61.117188 153.59375 Z M 68.003906 152.015625 C 66.9375 150.910156 68.859375 147.417969 69.84375 149.449219 C 70.085938 150.140625 70.007812 151.097656 69.390625 151.570312 C 69.144531 152.117188 68.476562 152.683594 68.003906 152.015625 Z M 51.867188 155.46875 C 51.851562 155.105469 51.910156 154.726562 52.078125 154.402344 C 52.191406 154.179688 52.394531 153.902344 52.664062 153.863281 C 53.316406 153.773438 53.574219 154.574219 53.597656 155.089844 C 53.617188 155.449219 53.554688 155.832031 53.390625 156.15625 C 53.277344 156.375 53.070312 156.65625 52.804688 156.691406 C 52.148438 156.785156 51.894531 155.980469 51.867188 155.46875 Z M 70.859375 152.453125 C 70.84375 152.09375 70.90625 151.714844 71.070312 151.390625 C 71.183594 151.167969 71.386719 150.890625 71.65625 150.851562 C 72.308594 150.761719 72.5625 151.5625 72.589844 152.078125 C 72.609375 152.4375 72.546875 152.816406 72.378906 153.140625 C 72.269531 153.363281 72.0625 153.640625 71.796875 153.679688 C 71.140625 153.769531 70.886719 152.96875 70.859375 152.453125 Z M 70.859375 152.453125 " fill-opacity="1" fill-rule="nonzero"/>
      </g>
    </g>
  </g>
  <g fill="#927e2e" fill-opacity="1" transform="matrix(1, 0, 0, 1, 0.744174, 5.953386)">
    <g transform="translate(202.216576, 209.286937)">
      <g/>
    </g>
  </g>
</svg>